<svg xmlns="http://www.w3.org/2000/svg" width="360" height="360" viewBox="0 0 360 360">
    <defs>
        <clipPath id="surqnvr9ua">
            <path data-name="Rectangle 10493" transform="translate(24 112)" style="fill:#c3c3c3" d="M0 0h360v360H0z"/>
        </clipPath>
        <clipPath id="4ckths0mnb">
            <path data-name="Rectangle 10492" style="fill:none" d="M0 0h253.998v345.979H0z"/>
        </clipPath>
        <clipPath id="hol720qxpc">
            <path data-name="Rectangle 10489" style="fill:#dbb1c0" d="M0 0h34.113v67.436H0z"/>
        </clipPath>
        <clipPath id="2pn27m8xud">
            <path data-name="Rectangle 10490" style="fill:#dbb1c0" d="M0 0h34.112v67.436H0z"/>
        </clipPath>
    </defs>
    <g data-name="Group 36319">
        <g data-name="Mask Group 75183" transform="translate(-24 -112)" style="clip-path:url(#surqnvr9ua)">
            <path data-name="Rectangle 10488" transform="translate(24 112)" style="fill:#c3c3c3" d="M0 0h360v360H0z"/>
            <g data-name="Mask Group 75182">
                <g data-name="Group 75248">
                    <g data-name="Group 75247" style="clip-path:url(#4ckths0mnb)" transform="translate(77.77 151.357)">
                        <g data-name="Group 75246">
                            <g data-name="Group 75245" style="clip-path:url(#4ckths0mnb)">
                                <path data-name="Path 73143" d="M103.2.814s-47.371-4.2-65.536 47.058-30.064 148.976 70.475 160.5l-1.806 50.42s44.092 9.244 74.995-23.53S197.59 32.5 145.546 10.778C121.963-4.227 103.2.814 103.2.814" transform="translate(23.277)" style="fill:#41403e"/>
                                <path data-name="Path 73144" d="M245.786 135.868c-2.206-10.954-37.533-31.485-49.018-34.222s-18.1 15.305-18.1 15.305L127 173.742l-51.666-56.791s-6.623-18.044-18.106-15.305-46.81 23.269-49.016 34.222S-7.683 218.912 6 246.748h241.99c13.686-27.836 0-99.932-2.208-110.88" transform="translate(0 99.231)" style="fill:#f1abc5"/>
                                <path data-name="Path 73145" d="M118.324 80.546H67.9c0 52.516-30.87 56.078-30.87 56.078 0 49.739 56.083 57.5 56.083 57.5s56.083-7.758 56.083-57.5c0 0-30.87-3.562-30.87-56.078" transform="translate(33.886 78.852)" style="fill:#edd0a8"/>
                                <path data-name="Path 73146" d="M91.107 173.236c-21.34 0-37.628-18.573-44.929-32.5S33.827 46.73 49.553 24.681C64.95 3.086 91.107 5.528 91.107 5.528s26.157-2.442 41.558 19.152c15.723 22.05 10.671 102.129 3.371 116.055s-23.589 32.5-44.929 32.5" transform="translate(35.891 5.331)" style="fill:#fce5c5"/>
                                <path data-name="Path 73147" d="M42.477 103.792c64.883-9.6 79.959-56.923 79.959-56.923s1.885 25.877 23.3 43.242c0 0 15.331-45.087-8.988-69.854S72.725-3.761 48.765 22.846s-6.287 80.946-6.287 80.946" transform="translate(33.126 2.221)" style="fill:#41403e"/>
                                <g data-name="Group 75241" style="opacity:.4;mix-blend-mode:multiply;isolation:isolate">
                                    <g data-name="Group 75240">
                                        <g data-name="Group 75239" style="clip-path:url(#hol720qxpc)" transform="translate(42.646 278.544)">
                                            <path data-name="Path 73148" d="M29.541 140.752s-14.581 51.327 26.841 67.435H23.246s-4.64-41.414 6.3-67.435" transform="translate(-22.268 -140.752)" style="fill:#dbb1c0"/>
                                        </g>
                                    </g>
                                </g>
                                <g data-name="Group 75244" style="opacity:.4;mix-blend-mode:multiply;isolation:isolate">
                                    <g data-name="Group 75243">
                                        <g data-name="Group 75242" style="clip-path:url(#2pn27m8xud)" transform="translate(177.238 278.544)">
                                            <path data-name="Path 73149" d="M119.387 140.752s14.582 51.326-26.841 67.435h33.136s4.64-41.414-6.295-67.435" transform="translate(-92.546 -140.752)" style="fill:#dbb1c0"/>
                                        </g>
                                    </g>
                                </g>
                            </g>
                        </g>
                    </g>
                </g>
            </g>
        </g>
    </g>
</svg>
